<?xml version="1.0" encoding="utf-8"?>
<!-- Generator: Adobe Illustrator 16.0.0, SVG Export Plug-In . SVG Version: 6.00 Build 0)  -->
<!DOCTYPE svg PUBLIC "-//W3C//DTD SVG 1.1//EN" "http://www.w3.org/Graphics/SVG/1.1/DTD/svg11.dtd">
<svg version="1.1" id="Layer_1" xmlns="http://www.w3.org/2000/svg" xmlns:xlink="http://www.w3.org/1999/xlink" x="0px" y="0px"
	 width="236px" height="52px" viewBox="0 0 236 52" enable-background="new 0 0 236 52" xml:space="preserve">
<g>
	<path fill-rule="evenodd" clip-rule="evenodd" fill="#FFFFFF" d="M27.41,49.49h-0.02v0.01h-0.32C13.78,49.5,3,38.98,3,26
		C3,13.03,13.78,2.5,27.07,2.5h0.02h0.01h0.31v9.21h-0.02H27.1c-8.09,0.01-14.63,6.39-14.63,14.281c0,7.9,6.55,14.279,14.64,14.279
		h0.3V49.49z"/>
	<path fill-rule="evenodd" clip-rule="evenodd" fill="#FFFFFF" d="M30.96,29.35c-0.32,0.141-0.54,0.23-1,0.23
		c-2.45,0-2.64-2.371-2.64-2.371v-4.02l0.06-0.46l0.06-0.01h5.05v3.96C32.49,26.68,32.34,28.76,30.96,29.35z"/>
	<path fill-rule="evenodd" clip-rule="evenodd" fill="#FFFFFF" d="M43.89,29.35c-0.32,0.141-0.54,0.23-1.01,0.23
		c-2.44,0-2.63-2.371-2.63-2.371v-4.02l0.06-0.46l0.06-0.01h5.05v3.96C45.42,26.68,45.27,28.76,43.89,29.35z"/>
	<path fill-rule="evenodd" clip-rule="evenodd" fill="#FFFFFF" d="M37.08,37.43c-0.24,0.07-0.37,0.109-0.67,0.109
		c-2.44,0-2.63-2.35-2.63-2.35v-4.029l0.05,0.439l0.22-0.02h4.9v3.968C38.95,35.549,38.77,36.99,37.08,37.43z"/>
	<path fill-rule="evenodd" clip-rule="evenodd" fill="#FFFFFF" d="M37.41,29.35c-0.32,0.141-0.55,0.23-1,0.23
		c-2.44,0-2.63-2.371-2.63-2.371v-4.02l0.05-0.46l0.22-0.01h4.9v3.96C38.95,26.68,38.79,28.77,37.41,29.35z"/>
	<path fill-rule="evenodd" clip-rule="evenodd" fill="#FFFFFF" d="M37.08,21.5c-0.24,0.06-0.37,0.1-0.67,0.1
		c-2.44,0-2.63-2.35-2.63-2.35V15.23l0.05-0.08l0.22-0.03h4.9v3.98C38.95,19.1,38.77,21.049,37.08,21.5z"/>
	<g>
		<path fill="#FFFFFF" d="M71.789,33.279l-1.095-3.044H65.72l-1.094,3.044h-2.865l5.353-14.167h2.188l5.353,14.167H71.789z
			 M68.028,22.436h0.358l-1.871,5.432h3.382L68.028,22.436z"/>
		<path fill="#FFFFFF" d="M80.407,33.398c-2.964,0-5.292-2.009-5.292-5.013v-9.272H77.8v9.054c0,1.711,1.114,2.646,2.606,2.646
			c1.493,0,2.626-0.936,2.626-2.646v-9.054h2.687v9.272C85.72,31.389,83.372,33.398,80.407,33.398z"/>
		<path fill="#FFFFFF" d="M92.865,21.481v11.798h-2.687V21.481h-3.88v-2.368h10.446v2.368H92.865z"/>
		<path fill="#FFFFFF" d="M97.583,33.279V19.113h9.59v2.468h-6.904v3.383h5.89v2.348h-5.89v3.502h6.904v2.466H97.583z"/>
		<path fill="#FFFFFF" d="M117.224,33.279l-6.406-9.709h0.377v9.709h-2.686V19.113h2.428l6.406,9.71h-0.357v-9.71h2.686v14.167
			H117.224z"/>
		<path fill="#FFFFFF" d="M127.076,21.481v11.798h-2.686V21.481h-3.881v-2.368h10.447v2.368H127.076z"/>
		<path fill="#FFFFFF" d="M131.794,33.279V19.113h2.686v14.167H131.794z"/>
		<path fill="#FFFFFF" d="M141.625,33.398c-2.348,0-3.959-1.333-4.676-2.606c-0.459-0.835-0.637-1.233-0.637-4.597
			c0-3.383,0.178-3.779,0.637-4.615c0.717-1.254,2.328-2.588,4.676-2.588c2.824,0,4.775,1.891,5.293,4.557h-2.787
			c-0.357-1.133-1.273-1.969-2.506-1.969c-0.916,0-1.592,0.397-1.971,0.895c-0.537,0.656-0.656,1.035-0.656,3.721
			c0,2.666,0.119,3.045,0.656,3.721c0.379,0.479,1.055,0.896,1.971,0.896c1.094,0,1.91-0.598,2.527-1.871h2.766
			C146.281,31.947,144.171,33.398,141.625,33.398z"/>
		<path fill="#FFFFFF" d="M156.133,33.279l-1.094-3.044h-4.975l-1.096,3.044h-2.865l5.354-14.167h2.188l5.354,14.167H156.133z
			 M152.371,22.436h0.359l-1.871,5.432h3.383L152.371,22.436z"/>
		<path fill="#FFFFFF" d="M165.447,33.439l-0.775,1.014l-0.219-0.418c0.139-0.039,0.338-0.08,0.576-0.08
			c1.273,0,2.029,0.797,2.029,1.732c0,1.393-1.273,2.088-2.727,2.088c-0.656,0-1.412-0.238-2.348-0.557l0.578-1.312
			c0.617,0.219,1.074,0.357,1.512,0.357c0.498,0,0.895-0.139,0.895-0.557c0-0.338-0.338-0.438-0.715-0.438
			c-0.219,0-0.398,0.039-0.797,0.238l-0.756-0.637l1.055-1.412c-1.91-0.26-3.244-1.472-3.881-2.567
			c-0.457-0.835-0.637-1.233-0.637-4.636c0-3.423,0.18-3.82,0.637-4.656c0.717-1.273,2.328-2.607,4.676-2.607
			c2.826,0,4.775,1.91,5.293,4.598h-2.785c-0.357-1.154-1.273-1.99-2.508-1.99c-0.914,0-1.592,0.418-1.969,0.895
			c-0.537,0.678-0.656,1.035-0.656,3.762c0,2.705,0.119,3.064,0.656,3.74c0.377,0.478,1.055,0.916,1.969,0.916
			c1.096,0,1.91-0.598,2.527-1.871h2.766C169.268,31.727,167.596,33.141,165.447,33.439z"/>
		<path fill="#FFFFFF" d="M179.059,33.279l-1.094-3.044h-4.975l-1.094,3.044h-2.865l5.352-14.167h2.189l5.352,14.167H179.059z
			 M176.83,18.118c-1.014,0-2.068-0.597-2.865-0.597c-0.199,0-0.557,0.1-0.557,0.696h-1.771c0.24-1.492,1.215-2.328,2.547-2.328
			c0.996,0,1.891,0.617,2.707,0.617c0.277,0,0.576-0.1,0.717-0.716h1.73C179.039,17.123,178.303,18.118,176.83,18.118z
			 M175.299,22.436h0.357l-1.869,5.432h3.381L175.299,22.436z"/>
		<path fill="#FFFFFF" d="M192.154,30.792c-0.717,1.273-2.328,2.606-4.676,2.606s-3.959-1.333-4.676-2.606
			c-0.457-0.835-0.637-1.233-0.637-4.597c0-3.383,0.18-3.779,0.637-4.615c0.717-1.254,2.328-2.588,4.676-2.588
			s3.959,1.334,4.676,2.588c0.457,0.836,0.656,1.232,0.656,4.615C192.811,29.559,192.611,29.958,192.154,30.792z M189.449,22.475
			c-0.379-0.497-1.055-0.895-1.971-0.895s-1.592,0.397-1.971,0.895c-0.537,0.656-0.656,1.035-0.656,3.721
			c0,2.666,0.119,3.045,0.656,3.721c0.379,0.479,1.055,0.896,1.971,0.896s1.592-0.418,1.971-0.896
			c0.537-0.676,0.676-1.055,0.676-3.721C190.125,23.51,189.986,23.131,189.449,22.475z"/>
		<path fill="#FFFFFF" d="M194.523,33.279V31.25h2.566v2.029H194.523z"/>
		<path fill="#FFFFFF" d="M204.115,33.398c-2.348,0-3.959-1.333-4.676-2.606c-0.457-0.835-0.637-1.233-0.637-4.597
			c0-3.383,0.18-3.779,0.637-4.615c0.717-1.254,2.328-2.588,4.676-2.588c2.826,0,4.775,1.891,5.293,4.557h-2.785
			c-0.357-1.133-1.273-1.969-2.508-1.969c-0.914,0-1.592,0.397-1.969,0.895c-0.537,0.656-0.656,1.035-0.656,3.721
			c0,2.666,0.119,3.045,0.656,3.721c0.377,0.479,1.055,0.896,1.969,0.896c1.494,0,2.646-1.095,2.646-2.646v-0.438h-2.885v-2.488
			h5.572v3.045C209.449,31.131,207.102,33.398,204.115,33.398z"/>
		<path fill="#FFFFFF" d="M220.793,30.792c-0.717,1.273-2.328,2.606-4.678,2.606c-2.348,0-3.959-1.333-4.676-2.606
			c-0.457-0.835-0.637-1.233-0.637-4.597c0-3.383,0.18-3.779,0.637-4.615c0.717-1.254,2.328-2.588,4.676-2.588
			c2.35,0,3.961,1.334,4.678,2.588c0.457,0.836,0.656,1.232,0.656,4.615C221.449,29.559,221.25,29.958,220.793,30.792z
			 M218.086,22.475c-0.379-0.497-1.055-0.895-1.971-0.895c-0.914,0-1.592,0.397-1.969,0.895c-0.537,0.656-0.656,1.035-0.656,3.721
			c0,2.666,0.119,3.045,0.656,3.721c0.377,0.479,1.055,0.896,1.969,0.896c0.916,0,1.592-0.418,1.971-0.896
			c0.537-0.676,0.676-1.055,0.676-3.721C218.762,23.51,218.623,23.131,218.086,22.475z"/>
		<path fill="#FFFFFF" d="M228.613,33.279h-2.068l-4.855-14.167h2.846l3.223,10.386H227.4l3.223-10.386h2.846L228.613,33.279z"/>
	</g>
</g>
</svg>
