<?xml version="1.0" encoding="UTF-8" standalone="no"?>
<!-- Generator: Adobe Illustrator 13.0.0, SVG Export Plug-In . SVG Version: 6.00 Build 14948)  -->

<svg
   xmlns:dc="http://purl.org/dc/elements/1.1/"
   xmlns:cc="http://creativecommons.org/ns#"
   xmlns:rdf="http://www.w3.org/1999/02/22-rdf-syntax-ns#"
   xmlns:svg="http://www.w3.org/2000/svg"
   xmlns="http://www.w3.org/2000/svg"
   xmlns:sodipodi="http://sodipodi.sourceforge.net/DTD/sodipodi-0.dtd"
   xmlns:inkscape="http://www.inkscape.org/namespaces/inkscape"
   version="1.1"
   x="0px"
   y="0px"
   width="566.929px"
   height="566.929px"
   viewBox="0 0 566.929 566.929"
   enable-background="new 0 0 566.929 566.929"
   xml:space="preserve"
   id="svg2985"
   inkscape:version="0.48.4 r9939"
   sodipodi:docname="assinatura_icon_new.svg"
   inkscape:export-filename="/home/agrr/painterpaths/image2.png"
   inkscape:export-xdpi="32.110001"
   inkscape:export-ydpi="32.110001"><metadata
     id="metadata3134"><rdf:RDF><cc:Work
         rdf:about=""><dc:format>image/svg+xml</dc:format><dc:type
           rdf:resource="http://purl.org/dc/dcmitype/StillImage" /><dc:title></dc:title></cc:Work></rdf:RDF></metadata><defs
     id="defs3132" /><sodipodi:namedview
     pagecolor="#ffffff"
     bordercolor="#666666"
     borderopacity="1"
     objecttolerance="10"
     gridtolerance="10"
     guidetolerance="10"
     inkscape:pageopacity="0"
     inkscape:pageshadow="2"
     inkscape:window-width="1462"
     inkscape:window-height="854"
     id="namedview3130"
     showgrid="false"
     inkscape:zoom="0.96661131"
     inkscape:cx="283.46451"
     inkscape:cy="283.46451"
     inkscape:window-x="10"
     inkscape:window-y="34"
     inkscape:window-maximized="0"
     inkscape:current-layer="svg2985" /><g
     id="Layer_2"
     display="none"><rect
       display="inline"
       width="566.929"
       height="566.929"
       id="rect2988" /></g><g
     id="g2991"
     transform="translate(51.727099,84.832442)"><g
       id="g2993"><g
         id="g2995"><g
           id="g2997"><path
             style="fill:#ffffff"
             inkscape:connector-curvature="0"
             id="path2999"
             d="m 19.272,44.166 c 0,-14.835 12.054,-26.88 26.915,-26.88 l 385.572,0.138 c 14.852,0 26.906,12.055 26.906,26.889 l -0.087,294.951 c -0.018,14.816 -12.054,26.904 -26.958,26.854 L 46.056,366.03 c -14.851,0 -26.914,-12.089 -26.905,-26.907 l 0.121,-294.957 0,0 z" /><path
             style="fill:#4e8abe"
             inkscape:connector-curvature="0"
             id="path3001"
             d="m 46.048,370.434 c -17.295,0 -31.344,-14.04 -31.344,-31.328 l 0,0 v -0.223 c 0.026,-0.019 0.026,-0.157 0.042,-0.363 l 0,0 0.104,-294.354 c 0,-17.287 14.015,-31.301 31.345,-31.301 l 0,0 385.564,0.146 c 17.287,0 31.292,14.015 31.344,31.302 l 0,0 -0.12,294.933 c -0.035,15.749 -11.727,28.857 -26.976,30.964 l 0,0 v 0.345 l -389.959,-0.121 0,0 z m 0,-8.842 385.556,0.068 0,0 c 0.017,0 0.034,0 0.051,0 l 0,0 h 0.034 c 12.4,0 22.451,-10.067 22.451,-22.415 l 0,0 0.104,-294.933 c -0.035,-12.417 -10.12,-22.459 -22.52,-22.494 l 0,0 -385.53,-0.113 c -12.452,0 -22.502,10.051 -22.502,22.46 l 0,0 -0.138,295.425 c 0.259,12.14 10.241,21.967 22.494,22.002 l 0,0 z" /></g><path
           style="fill:#ffffff;stroke:#4e8abe"
           inkscape:connector-curvature="0"
           id="path3003"
           d="M 238.916,191.7" /></g><g
         id="g3005"><g
           id="g3007"><path
             style="fill:#ffffff;fill-rule:evenodd"
             inkscape:connector-curvature="0"
             id="path3009"
             d="m 402.504,220.783 28.634,0.008 0.154,22.244 c 0,0 -1.227,13.557 -14.42,13.557 -13.35,0 -14.404,-13.246 -14.404,-13.246 l 0.036,-22.563 z"
             clip-rule="evenodd" /><path
             style="fill:#ffffff;fill-rule:evenodd"
             inkscape:connector-curvature="0"
             id="path3011"
             d="m 402.504,176.123 h 28.685 l 0.104,22.279 c 0,0 -1.227,13.513 -14.387,13.53 -13.348,0 -14.401,-13.246 -14.401,-13.246 v -22.563 z"
             clip-rule="evenodd" /><path
             style="fill:#ffffff;fill-rule:evenodd"
             inkscape:connector-curvature="0"
             id="path3013"
             d="m 366.34,176.106 28.669,0.017 0.086,22.279 c 0,0 -1.243,13.496 -14.402,13.513 -13.367,0 -14.386,-13.246 -14.386,-13.246 l 0.033,-22.563 z"
             clip-rule="evenodd" /><path
             style="fill:#ffffff;fill-rule:evenodd"
             inkscape:connector-curvature="0"
             id="path3015"
             d="m 402.557,131.438 28.632,0.017 0.138,22.287 c 0,0 -1.192,13.522 -14.421,13.522 -13.348,-0.008 -14.349,-13.255 -14.349,-13.255 v -22.571 z"
             clip-rule="evenodd" /></g><path
           style="fill:#ffffff"
           inkscape:connector-curvature="0"
           id="path3017"
           d="m 232.793,191.847 c 0.027,-72.74 59.011,-131.664 131.751,-131.639 0.569,0 1.156,0 1.692,0 l -0.052,51.638 c -0.518,-0.018 -1.071,-0.018 -1.675,-0.018 -44.211,-0.017 -80.027,35.817 -80.046,80.028 0,44.237 35.767,80.098 80.011,80.115 0.552,0 1.14,0 1.693,-0.017 v 51.662 c -0.588,0 -1.142,0 -1.693,0 -72.756,-0.053 -131.723,-59.037 -131.681,-131.769 z" /></g><g
         style="opacity:0.97000002"
         id="g3019"><g
           id="g3021"><path
             style="fill:#4e8abe;fill-rule:evenodd"
             inkscape:connector-curvature="0"
             id="path3023"
             d="m 397.08,209.851 28.669,0.017 0.154,22.261 c 0,0 -1.242,13.514 -14.472,13.514 -13.332,0.034 -14.352,-13.221 -14.352,-13.221 v -22.571 z"
             clip-rule="evenodd" /><path
             style="fill:#4e8abe;fill-rule:evenodd"
             inkscape:connector-curvature="0"
             id="path3025"
             d="m 397.08,165.218 h 28.669 l 0.154,22.26 c 0,0 -1.242,13.505 -14.437,13.497 -13.333,0 -14.387,-13.186 -14.387,-13.186 v -22.571 z"
             clip-rule="evenodd" /><path
             style="fill:#4e8abe;fill-rule:evenodd"
             inkscape:connector-curvature="0"
             id="path3027"
             d="m 433.313,165.736 28.684,0.008 0.104,22.27 c 0,0 -1.227,13.505 -14.387,13.496 -13.436,-0.009 -14.401,-13.203 -14.401,-13.203 v -22.571 z"
             clip-rule="evenodd" /><path
             style="fill:#4e8abe;fill-rule:evenodd"
             inkscape:connector-curvature="0"
             id="path3029"
             d="m 360.883,165.2 28.721,0.018 0.103,22.252 c 0,0 -1.19,13.505 -14.419,13.505 -13.402,-0.008 -14.404,-13.203 -14.404,-13.203 V 165.2 z"
             clip-rule="evenodd" /><path
             style="fill:#4e8abe;fill-rule:evenodd"
             inkscape:connector-curvature="0"
             id="path3031"
             d="m 397.149,120.549 28.6,0.008 0.189,22.26 c 0,0 -1.277,13.523 -14.438,13.515 -13.367,0 -14.386,-13.237 -14.386,-13.237 l 0.035,-22.546 z"
             clip-rule="evenodd" /></g><path
           style="fill:#4e8abe"
           inkscape:connector-curvature="0"
           id="path3033"
           d="m 227.51,180.872 c 0.017,-72.732 58.992,-131.673 131.75,-131.656 0.57,0 1.159,0 1.659,0.018 v 51.62 c -0.537,0 -1.122,-0.018 -1.659,-0.018 -44.228,-0.017 -80.097,35.827 -80.131,80.063 -0.035,44.227 35.834,80.105 80.098,80.105 0.552,0 1.104,0 1.656,0 l -0.034,51.61 c -0.552,0 -1.122,0.036 -1.709,0.036 -72.705,-0.037 -131.656,-59.021 -131.63,-131.778 z" /></g></g></g></svg>