<?xml version="1.0" encoding="utf-8"?>
<!-- Generator: Adobe Illustrator 13.0.0, SVG Export Plug-In . SVG Version: 6.00 Build 14948)  -->
<!DOCTYPE svg PUBLIC "-//W3C//DTD SVG 1.1//EN" "http://www.w3.org/Graphics/SVG/1.1/DTD/svg11.dtd">
<svg version="1.1" xmlns="http://www.w3.org/2000/svg" xmlns:xlink="http://www.w3.org/1999/xlink" x="0px" y="0px"
	 width="566.929px" height="566.929px" viewBox="0 0 566.929 566.929" enable-background="new 0 0 566.929 566.929"
	 xml:space="preserve">
<g id="Layer_2" display="none">
	<rect display="inline" width="566.929" height="566.929"/>
</g>
<g id="Layer_1">
	<g>
		<g>
			<g>
				<g>
					<path fill="#FFFFFF" d="M19.272,44.166c0-14.835,12.054-26.88,26.915-26.88l385.572,0.138
						c14.852,0,26.906,12.055,26.906,26.889l-0.087,294.951c-0.018,14.816-12.054,26.904-26.958,26.854L46.056,366.03
						c-14.851,0-26.914-12.089-26.905-26.907L19.272,44.166L19.272,44.166z"/>
					<path fill="#4E8ABE" d="M46.048,370.434c-17.295,0-31.344-14.04-31.344-31.328l0,0v-0.223c0.026-0.019,0.026-0.157,0.042-0.363
						l0,0L14.85,44.166c0-17.287,14.015-31.301,31.345-31.301l0,0l385.564,0.146c17.287,0,31.292,14.015,31.344,31.302l0,0
						l-0.12,294.933c-0.035,15.749-11.727,28.857-26.976,30.964l0,0v0.345L46.048,370.434L46.048,370.434z M46.048,361.592
						l385.556,0.068l0,0c0.017,0,0.034,0,0.051,0l0,0h0.034c12.4,0,22.451-10.067,22.451-22.415l0,0l0.104-294.933
						c-0.035-12.417-10.12-22.459-22.52-22.494l0,0l-385.53-0.113c-12.452,0-22.502,10.051-22.502,22.46l0,0L23.554,339.59
						C23.813,351.73,33.795,361.557,46.048,361.592L46.048,361.592z"/>
				</g>
				<path fill="#FFFFFF" stroke="#4E8ABE" d="M238.916,191.7"/>
			</g>
			<g>
				<g>
					<path fill-rule="evenodd" clip-rule="evenodd" fill="#FFFFFF" d="M402.504,220.783l28.634,0.008l0.154,22.244
						c0,0-1.227,13.557-14.42,13.557c-13.35,0-14.404-13.246-14.404-13.246L402.504,220.783z"/>
					<path fill-rule="evenodd" clip-rule="evenodd" fill="#FFFFFF" d="M402.504,176.123h28.685l0.104,22.279
						c0,0-1.227,13.513-14.387,13.53c-13.348,0-14.401-13.246-14.401-13.246V176.123z"/>
					<path fill-rule="evenodd" clip-rule="evenodd" fill="#FFFFFF" d="M366.34,176.106l28.669,0.017l0.086,22.279
						c0,0-1.243,13.496-14.402,13.513c-13.367,0-14.386-13.246-14.386-13.246L366.34,176.106z"/>
					<path fill-rule="evenodd" clip-rule="evenodd" fill="#FFFFFF" d="M402.557,131.438l28.632,0.017l0.138,22.287
						c0,0-1.192,13.522-14.421,13.522c-13.348-0.008-14.349-13.255-14.349-13.255V131.438z"/>
				</g>
				<path fill="#FFFFFF" d="M232.793,191.847c0.027-72.74,59.011-131.664,131.751-131.639c0.569,0,1.156,0,1.692,0l-0.052,51.638
					c-0.518-0.018-1.071-0.018-1.675-0.018c-44.211-0.017-80.027,35.817-80.046,80.028c0,44.237,35.767,80.098,80.011,80.115
					c0.552,0,1.14,0,1.693-0.017v51.662c-0.588,0-1.142,0-1.693,0C291.718,323.563,232.751,264.579,232.793,191.847z"/>
			</g>
			<g opacity="0.97">
				<g>
					<path fill-rule="evenodd" clip-rule="evenodd" fill="#4E8ABE" d="M397.08,209.851l28.669,0.017l0.154,22.261
						c0,0-1.242,13.514-14.472,13.514c-13.332,0.034-14.352-13.221-14.352-13.221V209.851z"/>
					<path fill-rule="evenodd" clip-rule="evenodd" fill="#4E8ABE" d="M397.08,165.218h28.669l0.154,22.26
						c0,0-1.242,13.505-14.437,13.497c-13.333,0-14.387-13.186-14.387-13.186V165.218z"/>
					<path fill-rule="evenodd" clip-rule="evenodd" fill="#4E8ABE" d="M433.313,165.736l28.684,0.008l0.104,22.27
						c0,0-1.227,13.505-14.387,13.496c-13.436-0.009-14.401-13.203-14.401-13.203V165.736z"/>
					<path fill-rule="evenodd" clip-rule="evenodd" fill="#4E8ABE" d="M360.883,165.2l28.721,0.018l0.103,22.252
						c0,0-1.19,13.505-14.419,13.505c-13.402-0.008-14.404-13.203-14.404-13.203V165.2z"/>
					<path fill-rule="evenodd" clip-rule="evenodd" fill="#4E8ABE" d="M397.149,120.549l28.6,0.008l0.189,22.26
						c0,0-1.277,13.523-14.438,13.515c-13.367,0-14.386-13.237-14.386-13.237L397.149,120.549z"/>
				</g>
				<path fill="#4E8ABE" d="M227.51,180.872c0.017-72.732,58.992-131.673,131.75-131.656c0.57,0,1.159,0,1.659,0.018v51.62
					c-0.537,0-1.122-0.018-1.659-0.018c-44.228-0.017-80.097,35.827-80.131,80.063c-0.035,44.227,35.834,80.105,80.098,80.105
					c0.552,0,1.104,0,1.656,0l-0.034,51.61c-0.552,0-1.122,0.036-1.709,0.036C286.435,312.613,227.484,253.629,227.51,180.872z"/>
			</g>
		</g>
	</g>
	<g>
		<path fill="none" d="M61.029,559.486c25.421-30.05,42.812-69.615,62.024-103.43c29.117-52.725,64.227-108.558,80.676-167.446
			c-37.501,70.511-66.479,164.269-65.771,243.762c-16.234-9.499-90.796-64.055-100.881-27.425
			c17.797,8.394,39.988,6.546,59.295,5.562c46.62-0.57,95.225-4.975,141.844-5.562c-17.088,4.059-36.18,3.661-53.691,10.379
			c32.226,12.124,73.958,7.997,108.626,13.626"/>
		<path fill="#4E8ABE" d="M69.457,558.897c15.984-19.014,28.289-40.722,39.988-62.516c12.063-22.485,24.143-44.867,36.706-67.042
			c25.819-45.609,52.267-91.805,66.61-142.544c1.692-6.01-15.482-1.276-17.459,2.427c-19.938,37.605-35.714,77.291-47.38,118.169
			c-11.717,41.101-19.272,83.964-18.997,126.811c5.793-1.917,11.58-3.833,17.382-5.75c-19.023-11.209-36.828-24.041-57.094-33.089
			c-10.483-4.663-21.95-8.497-33.556-7.72c-12.002,0.759-24.09,7.115-27.596,19.187c-0.45,1.485,0.803,2.21,1.891,2.763
			c13.979,6.287,29.488,6.925,44.581,6.683c16.977-0.328,33.996-1.087,50.972-1.743c36.431-1.52,72.809-4.197,109.282-4.662
			c1.521-3.178,3.032-6.321,4.56-9.465c-18.677,4.248-37.976,4.3-56.136,11.053c-2.097,0.76-12.123,6.113-5.803,8.462
			c35.222,12.918,73.76,8.136,110.285,13.92c4.145,0.69,9.637-1.468,12.729-4.214c2.936-2.66,1.744-5.008-1.849-5.596
			c-35.325-5.595-72.853-0.794-106.934-13.246c-1.935,2.815-3.877,5.63-5.812,8.48c16.423-6.063,34.29-5.855,51.265-9.757
			c3.342-0.762,7.461-2.177,9.559-5.166c2.547-3.66-2.625-4.3-5.008-4.3c-34.66,0.484-69.243,2.885-103.843,4.439
			c-16.725,0.76-33.468,1.053-50.186,1.778c-14.73,0.639-29.748,0.312-43.416-5.854c0.646,0.88,1.277,1.796,1.916,2.711
			c0.484-1.641,1.028-3.056,1.961-4.489c0.82-1.313,0.224-0.484,0.82-1.123c1.166-1.157,0.655-0.587-0.242-0.035
			c1.458-0.794-2.15,0.605,0.466-0.224c-3.73,1.174,2.184-0.104-0.985,0.259c0.328-0.035,3.091-0.155,1.407-0.155
			c1.218,0,2.444,0.12,3.662,0.276c9.49,1.002,19.307,5.561,28.037,9.826c16.968,8.237,32.174,19.308,48.374,28.857
			c2.909,1.693,6.631,0.968,9.645,0c1.995-0.672,7.745-2.935,7.729-5.802c-0.269-41.794,7.003-83.413,18.115-123.634
			c11.355-41.103,27.087-81.185,47.034-118.885c-5.803,0.838-11.623,1.665-17.425,2.478
			c-14.256,50.453-40.602,96.236-66.255,141.552c-12.289,21.69-24.126,43.606-35.87,65.607
			c-11.666,21.794-24.03,43.449-39.997,62.499c-2.875,3.419,2.875,4.421,5.017,4.282C61.945,564.061,66.625,562.267,69.457,558.897
			L69.457,558.897z"/>
	</g>
</g>
<g id="Layer_3">
	<g>
		<path fill-rule="evenodd" clip-rule="evenodd" fill="#E7E8E9" d="M316.949,529.971c-4.162-1.847-7.305,6.7-9.982,9.792
			c1.365-12.313,18.151-21.897,21.881-36.007c3.109,2.176,6.926,3.333,8.238,7.771c-7.72,4.957-8.427,15.562-18.894,18.306
			C317.777,529.832,317.382,529.867,316.949,529.971z"/>
		<path fill-rule="evenodd" clip-rule="evenodd" fill="#5289AF" d="M531.405,219.936c1.191,0.873,1.139,3.291,2.866,3.428
			c-3.972,6.458-9.758,11.494-15.439,16.631c1.675,2.668,5.854-1.899,7.081-3.255c4.3-0.129-3.938,3.8,0.397,3.67
			c-10.518,10.188-21.655,19.773-32.468,29.755c-9.257,5.164-16.56,11.942-22.415,19.886c-0.502,4.473-6.737,4.257-7.702,8.35
			c-9.568,3.438-5.061,18.255-8.064,27.01c9.722-10.811,17.39-23.21,27.01-34.116c1.847-5.182,8.063-6.899,9.739-12.278
			c8.548-7.591,15.214-16.76,24.436-23.885c1.521-1.398,3.472-2.453,4.49-4.197c-25.542,30.438-55.4,67.068-81.185,101.105
			c1.451,6.098,5.975,8.274,10.949,9.932c36.336-42.569,69.648-87.652,104.948-131.086c-0.553-5.82-5.405-6.243-7.306-10.388
			c1.191-0.138,2.453-0.276,3.645-0.414c4.593-0.64,6.838,1.675,7.996,5.319c1.397,16.259-15.302,29.134-26.044,42.734
			c-9.429,11.872-18.322,23.106-25.921,32.752c-18.358,23.191-36.267,50.081-54.313,65.745c-0.398,0.033-0.83,0.068-1.227,0.12
			c-5.751-4.387-12.435-7.634-16.372-14.316c-3.781-10.258,8.271-16.096,13.471-22.657c-1.297-2.592-5.89-0.968-6.614-4.267
			c-3.006,1.313-6.805,2.038-8.169,4.663c-0.863,0.76-1.813,1.521-3.471,1.642c0.69-2.713,14.35-13.816,20.291-5.977
			c4.525-1.622,5.596-10.586,2.021-15.179c21.432-33.383,53.915-57.855,77.522-89.501c-2.417,0.276-4.887,0.562-7.305,0.82
			C523.357,219.289,530.438,217.459,531.405,219.936z"/>
		<path fill-rule="evenodd" clip-rule="evenodd" fill="#18355D" d="M526.311,240.41c-4.335,0.129,3.902-3.8-0.397-3.67
			c-1.227,1.356-5.406,5.924-7.081,3.255c5.682-5.137,11.468-10.172,15.439-16.631c-1.728-0.138-1.675-2.555-2.866-3.428
			c2.9,0.061,2.746,4.033,6.527,3.005c0.172,3.489,3.765,2.694,5.423,4.396c0.069,0.794,0.173,1.598,0.294,2.444
			c-1.469,2.556-4.127,4.145-6.806,5.724c-0.259-3.186,4.544-2.288,4.369-5.457C536.689,229.452,531.682,237.992,526.311,240.41z"/>
		<path fill-rule="evenodd" clip-rule="evenodd" fill="#B2BAC3" d="M471.428,290.052c5.855-7.944,13.158-14.723,22.415-19.886
			c-0.829,1.909-1.363,4.059-4.421,4.214c-0.968,0.336-1.07,1.372-2.297,1.493c-4.749,4.776-10.932,8.333-14.471,14.067
			C472.222,289.974,471.858,289.999,471.428,290.052z"/>
		<path fill-rule="evenodd" clip-rule="evenodd" fill="#98A3AE" d="M548.743,220.498c-3.471,0.968-9.55,3.161-5.388,6.839
			c-1.658-1.701-5.251-0.907-5.423-4.396c0.896-0.38,2.384-0.284,2.296-1.494c2.903-1.382,6.339-2.339,10.812-2.452
			c0.727-0.008,1.469,0.018,1.348,1.089C551.196,220.222,549.935,220.36,548.743,220.498z"/>
		<path fill-rule="evenodd" clip-rule="evenodd" fill="#6297B6" d="M516.846,255.132c6.84-6.407,12.4-13.841,19.998-19.627
			c2.679-1.58,5.337-3.168,6.806-5.724c-0.121-0.846-0.225-1.65-0.294-2.444c-4.162-3.678,1.917-5.871,5.388-6.839
			c1.9,4.145,6.753,4.568,7.306,10.388c-35.3,43.434-68.612,88.517-104.948,131.086c-4.975-1.657-9.498-3.834-10.949-9.932
			c25.784-34.037,55.643-70.667,81.185-101.105C520.317,252.679,518.366,253.733,516.846,255.132z"/>
		<path fill-rule="evenodd" clip-rule="evenodd" fill="#3C6F99" d="M454.106,366.635c18.046-15.664,35.954-42.554,54.313-65.745
			c7.599-9.646,16.492-20.88,25.921-32.752c10.742-13.601,27.441-26.476,26.044-42.734c3.039,2.884,2.505,12.399,1.796,15.992
			c0.483,4.127-0.968,6.7-2.713,9.006c-0.396-2.176,1.21-2.772,0.675-5.042c-32.64,41.499-65.245,83.025-98.334,124.143
			c-2.884-0.086-5.181-0.915-7.563-1.641C454.175,367.463,454.157,367.031,454.106,366.635z"/>
		<path fill-rule="evenodd" clip-rule="evenodd" fill="#6B7A88" d="M536.844,235.504c-7.598,5.786-13.158,13.221-19.998,19.627
			c-9.222,7.125-15.888,16.294-24.436,23.885c-4.421,4.31-8.755,8.574-14.714,11.613c-1.106-5.018,9.566-10.146,11.726-16.25
			c3.058-0.156,3.592-2.306,4.421-4.214c10.813-9.982,21.95-19.567,32.468-29.755c5.371-2.418,10.379-10.958,14.902-10.362
			C541.388,233.217,536.585,232.318,536.844,235.504z"/>
		<path fill-rule="evenodd" clip-rule="evenodd" fill="#18355D" d="M489.422,274.38c-2.159,6.104-12.832,11.232-11.726,16.25
			c5.959-3.039,10.293-7.304,14.714-11.613c-1.676,5.379-7.893,7.097-9.739,12.278c-0.399,0.052-0.831,0.086-1.227,0.146
			c-5.285,6.166-12.694,10.62-19.205,15.82c-2.521-0.726,1.624-5.32,1.624-7.634c-0.035-0.432-0.069-0.83-0.138-1.227
			c0.965-4.093,7.2-3.877,7.702-8.35c0.431-0.053,0.794-0.078,1.227-0.112c4.887-4.654,11.001-8.264,14.471-14.067
			C488.352,275.751,488.454,274.716,489.422,274.38z"/>
		<path fill-rule="evenodd" clip-rule="evenodd" fill="#225384" d="M454.106,366.635c0.051,0.396,0.068,0.828,0.138,1.226
			c2.383,0.726,4.68,1.555,7.563,1.641c33.089-41.118,65.694-82.645,98.334-124.143c0.535,2.27-1.071,2.867-0.675,5.042
			c-2.295,1.131-2.883,3.627-2.951,6.536c-29.515,39.176-61.152,76.66-90.666,115.812c-2.557-1.382-6.027-1.71-8.912-2.711
			c-0.433,0.051-0.795,0.104-1.191,0.137c-0.708-1.035-1.348-2.055-2.763-2.158c-0.035-0.431-0.069-0.829-0.104-1.261
			C453.276,366.703,453.708,366.668,454.106,366.635z"/>
		<path fill-rule="evenodd" clip-rule="evenodd" fill="#17477E" d="M456.938,370.037c2.885,1.001,6.355,1.329,8.912,2.711
			c29.514-39.151,61.151-76.636,90.666-115.812c-2.021,3.946-2.85,8.92-6.081,11.881c0.605-1.191,1.193-2.383-0.292-2.452
			c-22.555,40.308-53.605,73.724-82.791,108.73c-0.951-1.555-2.833-1.986-5.146-1.918c-3.229,1.279-2.711-2.174-5.146-1.915
			C456.989,370.883,456.973,370.468,456.938,370.037z"/>
		<path fill-rule="evenodd" clip-rule="evenodd" fill="#18355D" d="M462.205,373.179c2.313-0.068,4.195,0.363,5.146,1.918
			c29.186-35.007,60.236-68.423,82.791-108.73c1.485,0.069,0.897,1.26,0.292,2.452c1.278,3.256-2.14,2.756-1.882,5.181
			c-21.656,36.578-43.778,72.759-70.856,104.932c-5.646,1.019-7.236-3.075-11.537-3.679c-0.793,0.087-1.641,0.173-2.434,0.24
			C463.362,374.544,462.309,374.458,462.205,373.179z"/>
		<path fill-rule="evenodd" clip-rule="evenodd" fill="#225384" d="M430.93,346.826c-0.19-1.623-0.396-3.266-0.554-4.923
			c4.198-3.298,7.237-7.599,9.706-12.295c-1.192-3.54-2.469,1.485-4.887,0.569c1.364-2.625,5.163-3.35,8.169-4.663
			c0.725,3.299,5.317,1.675,6.614,4.267c-5.199,6.562-17.252,12.399-13.471,22.657c-2.572-0.087-2.798-3.092-5.319-3.16
			c-0.051-0.433-0.086-0.829-0.155-1.191C431.033,347.654,430.963,347.223,430.93,346.826z"/>
		<path fill-rule="evenodd" clip-rule="evenodd" fill="#225384" d="M463.863,299.628c-3.109,3.401-8.912,9.447-4.455,15.439
			c8.357-7.081,15.698-14.974,22.036-23.626c0.396-0.061,0.827-0.095,1.227-0.146c-9.62,10.906-17.288,23.306-27.01,34.116
			c3.004-8.755-1.504-23.572,8.064-27.01C463.794,298.798,463.828,299.196,463.863,299.628z"/>
		<path fill-rule="evenodd" clip-rule="evenodd" fill="#98A3AE" d="M472.654,289.939c3.539-5.733,9.722-9.291,14.471-14.067
			C483.655,281.675,477.541,285.285,472.654,289.939z"/>
		<path fill-rule="evenodd" clip-rule="evenodd" fill="#494D52" d="M466.159,375.252c4.301,0.604,5.891,4.697,11.537,3.679
			c27.078-32.173,49.2-68.354,70.856-104.932c-20.688,38.097-43.173,74.743-71.963,106.278
			C472.117,379.829,468.819,377.964,466.159,375.252z"/>
		<path fill-rule="evenodd" clip-rule="evenodd" fill="#17477E" d="M463.863,299.628c0,2.313-4.145,6.908-1.624,7.634
			c6.511-5.2,13.92-9.654,19.205-15.82c-6.338,8.652-13.679,16.545-22.036,23.626C454.951,309.075,460.754,303.029,463.863,299.628z
			"/>
		<path fill-rule="evenodd" clip-rule="evenodd" fill="#808E9C" d="M425.749,333.718c1.777,1.503,5.939,1.019,7.305-0.828
			c2.573,2.174-8.065,3.179-5.13,9.291C425.283,341.473,423.867,336.068,425.749,333.718z"/>
		<path fill-rule="evenodd" clip-rule="evenodd" fill="#18355D" d="M435.195,330.178c2.418,0.916,3.694-4.109,4.887-0.569
			c-2.469,4.696-5.508,8.997-9.706,12.295c0.157,1.657,0.363,3.3,0.554,4.923c-1.555-0.362-2.678-1.313-2.85-3.402
			c-0.034-0.449-0.086-0.847-0.156-1.243c-2.936-6.112,7.703-7.117,5.13-9.291c-1.365,1.847-5.527,2.331-7.305,0.828
			c0.465-1.865-2.124-6.199,0.552-6.286c0.225,2.073,0.434,4.127,0.675,6.165c1.934-0.327,4.713,0.069,4.749-1.777
			C433.382,331.698,434.332,330.938,435.195,330.178z"/>
		<path fill-rule="evenodd" clip-rule="evenodd" fill="#6B7A88" d="M422.364,336.585c-1.348-3.695,3.091-2.747,1.777-6.407
			c-0.482-3.747,0.399-6.39,2.814-7.754c0.416,2.106-1.207,2.745-0.655,5.008c-2.676,0.087-0.087,4.421-0.552,6.286
			c-1.882,2.351-0.466,7.755,2.175,8.463c0.07,0.396,0.122,0.794,0.156,1.243c-1.641-0.259-2.177-1.951-3.938-2.073
			C424.057,339.123,422.364,338.934,422.364,336.585z"/>
		<path fill-rule="evenodd" clip-rule="evenodd" fill="#18355D" d="M394.249,372.074c6.303-9.102,13.125-17.771,20.585-25.938
			C408.549,355.219,401.709,363.888,394.249,372.074z"/>
		<path fill-rule="evenodd" clip-rule="evenodd" fill="#18355D" d="M422.364,336.585c0,2.349,1.692,2.538,1.777,4.766
			c3.23,5.078-3.229,0.311-5.042-0.674C422.969,338.571,421.206,340.816,422.364,336.585z"/>
		<path fill-rule="evenodd" clip-rule="evenodd" fill="#6B7A88" d="M424.142,341.351c1.762,0.122,2.298,1.814,3.938,2.073
			c0.172,2.09,1.295,3.04,2.85,3.402c0.033,0.396,0.104,0.828,0.104,1.261c-2.384-2.124-3.351,1.813-6.182-0.622
			c-1.452-1.469-1.659-4.438-4.231-4.49c-12.176,10.828-34.489,42.467-51.603,67.956c-17.908,26.751-35.541,51.999-44.815,73.414
			c-1.501,3.472-2.071,7.875,1.071,9.826c0.068,0.397,0.104,0.829,0.121,1.261c-1.07-0.432-2.263-0.898-2.659-2.193
			c-0.363-0.984-1.365-1.122-1.521-2.366c0.519-7.806,5.561-11.847,7.875-18.253c4.958-5.286,7.755-12.366,11.433-18.686
			c2.314-7.824,7.806-13.092,11.347-19.931c4.524-3.437,6.303-9.084,9.584-13.487c-0.033-0.449-0.068-0.847-0.138-1.261
			c5.492-4.886,8.428-11.863,12.849-17.581c5.13-11.138,13.66-19.531,20.085-29.6c7.46-8.187,14.3-16.855,20.585-25.938
			c0.829-2.314,2.313-4.076,4.266-5.459C420.913,341.661,427.372,346.429,424.142,341.351z"/>
		<path fill-rule="evenodd" clip-rule="evenodd" fill="#98A3AE" d="M424.229,346.429c-19.688,30.256-44.799,56.299-65.591,85.658
			c13.815-30.947,39.634-61.878,61.411-90.184C422.605,341.973,422.83,344.893,424.229,346.429z M420.188,343.13
			c-6.025,10.414-18.91,21.277-21.189,30.982C404.455,363.283,418.737,353.509,420.188,343.13z"/>
		<path fill-rule="evenodd" clip-rule="evenodd" fill="#808E9C" d="M399.567,375.217c2.245-9.74,15.163-20.584,21.19-30.963
			C419.29,354.633,405.06,364.354,399.567,375.217z"/>
		<path fill-rule="evenodd" clip-rule="evenodd" fill="#E7E8E9" d="M420.62,342.975c-21.761,28.289-47.596,59.287-61.428,90.2
			c20.86-29.377,45.92-55.402,65.659-85.71c2.831,2.436,3.798-1.502,6.182,0.622c0.069,0.362,0.104,0.759,0.155,1.191
			c4.438,6.545,11.156,10.205,16.526,15.594c-9.843,21.761-38.527,52.812-53.587,71.928c-19.238,24.214-38.441,49.34-54.987,70.756
			c-0.432,0.086-0.828,0.104-1.226,0.138c-4.146-3.61-7.184-8.67-12.331-11.053c-0.033-0.448-0.068-0.812-0.189-1.209
			c-0.018-0.432-0.053-0.863-0.121-1.261c-3.143-1.951-2.572-6.354-1.071-9.826c9.274-21.415,26.907-46.663,44.815-73.414
			C386.131,385.441,408.444,353.803,420.62,342.975z"/>
		<path fill-rule="evenodd" clip-rule="evenodd" fill="#4077A6" d="M431.188,349.278c2.521,0.068,2.747,3.073,5.319,3.16
			c3.938,6.683,10.621,9.93,16.372,14.316c0.034,0.432,0.068,0.83,0.104,1.261c-2.487-0.121-2.747-3.092-5.269-3.144
			C442.345,359.483,435.627,355.823,431.188,349.278z"/>
		<path fill-rule="evenodd" clip-rule="evenodd" fill="#4077A6" d="M336.688,507.814c-3.782-3.109-6.355-7.807-10.984-9.982
			c0-0.363-0.067-0.76-0.12-1.191c5.147,2.383,8.186,7.442,12.331,11.053C337.484,507.728,337.086,507.762,336.688,507.814z"/>
		<path fill-rule="evenodd" clip-rule="evenodd" fill="#98A3AE" d="M341.974,510.957c-0.604-1.555-2.35-1.675-2.833-3.401
			c16.546-21.416,35.749-46.542,54.987-70.756c15.06-19.116,43.744-50.167,53.587-71.928c2.521,0.052,2.781,3.022,5.269,3.144
			c1.415,0.104,2.055,1.123,2.763,2.158c-6.355-2.814-1.64,3.092-0.553,6.304c-32.035,38.392-63.362,79.96-95.104,120.042
			c-3.973,5.043-11.865,9.653-10.381,17.321c-1.018-0.104-1.381-1.07-2.605-0.933c-0.363,0.036-0.795,0.036-1.228,0.104
			C344.874,511.976,343.442,511.39,341.974,510.957z"/>
		<path fill-rule="evenodd" clip-rule="evenodd" fill="#6B7A88" d="M349.709,513.841c-1.484-7.668,6.408-12.278,10.381-17.321
			c31.741-40.082,63.068-81.65,95.104-120.042c-1.087-3.212-5.803-9.118,0.553-6.304c0.396-0.033,0.759-0.086,1.191-0.137
			c0.035,0.431,0.052,0.846,0.121,1.227c2.436-0.259,1.917,3.194,5.146,1.915c0.104,1.279,1.157,1.365,1.521,2.313
			c-1.591,0.363-5.027-3.607-5.027-0.638c2.713,5.458,10.294,4.697,13.419,9.671c-36.75,46.767-76.678,90.926-122.27,130.559
			C349.779,514.636,349.709,514.273,349.709,513.841z"/>
		<path fill-rule="evenodd" clip-rule="evenodd" fill="#6B7A88" d="M361.315,419.255c4.266-5.87,7.235-12.779,12.849-17.581
			C369.743,407.392,366.808,414.369,361.315,419.255z"/>
		<path fill-rule="evenodd" clip-rule="evenodd" fill="#18355D" d="M351.869,434.003c3.264-4.438,5.111-10.051,9.584-13.487
			C358.172,424.919,356.394,430.566,351.869,434.003z"/>
		<path fill-rule="evenodd" clip-rule="evenodd" fill="#18355D" d="M329.09,472.619c3.662-6.322,6.476-13.401,11.433-18.686
			C336.845,460.253,334.048,467.333,329.09,472.619z"/>
		<path fill-rule="evenodd" clip-rule="evenodd" fill="#808E9C" d="M312.321,510.56c1.348-7.166,4.559-12.728,7.857-18.306
			C322.372,502.271,315.653,505.017,312.321,510.56z"/>
		<path fill-rule="evenodd" clip-rule="evenodd" fill="#B2BAC3" d="M311.562,514.394c6.355-5.682,12.469-12.365,11.174-21.155
			c0.396,1.295,1.589,1.762,2.659,2.193c0.121,0.397,0.156,0.761,0.189,1.209c0.053,0.432,0.12,0.828,0.12,1.191
			c-3.487,1.468,1.192,3.903,0.726,6.217c-5.939,4.509-11,15.681-15.3,17.823C309.817,518.227,311.889,517.243,311.562,514.394z"/>
		<path fill-rule="evenodd" clip-rule="evenodd" fill="#98A3AE" d="M322.735,493.238c1.295,8.79-4.818,15.474-11.174,21.155
			c-0.156-1.588,1.347-1.899,0.76-3.834c3.332-5.543,10.051-8.289,7.857-18.306c-0.035-0.76,0-1.433,1.036-1.382
			C321.37,492.116,322.372,492.254,322.735,493.238z"/>
		<path fill-rule="evenodd" clip-rule="evenodd" fill="#CDD3D7" d="M311.13,521.872c4.3-2.143,9.36-13.314,15.3-17.823
			c0.467-2.313-4.213-4.749-0.726-6.217c4.629,2.176,7.202,6.873,10.984,9.982c0.916,1.727,2.245,2.814,4.06,3.315
			c-4.387,5.89-13.609,13.384-13.885,18.944c-1.227,0.155-2.471,0.312-3.662,0.396c-1.951,0.157-4.594,1.142-5.009-0.639
			c10.467-2.744,11.174-13.349,18.894-18.306c-1.313-4.438-5.129-5.595-8.238-7.771c-3.729,14.109-20.516,23.694-21.881,36.007
			c2.678-3.092,5.82-11.639,9.982-9.792c-2.851,3.265-6.77,5.666-7.407,10.743c-1.055-0.104-1.09,0.603-1.09,1.363
			c-0.396,0.035-0.828,0.086-1.191,0.12c-0.828,0.104-1.675,0.19-2.47,0.277c-4.696-5.165,2.435-8.789,2.176-13.919
			C308.574,526.501,308.574,523.149,311.13,521.872z"/>
		<path fill-rule="evenodd" clip-rule="evenodd" fill="#B2BAC3" d="M326.863,530.074c0.275-5.561,9.498-13.055,13.885-18.944
			c-1.814-0.501-3.144-1.589-4.06-3.315c0.397-0.053,0.796-0.087,1.227-0.121c0.397-0.034,0.794-0.052,1.226-0.138
			c0.483,1.727,2.229,1.847,2.833,3.401c1.07,5.63-9.861,10.447-11.604,17.495C328.659,528.605,327.761,529.315,326.863,530.074z"/>
		<path fill-rule="evenodd" clip-rule="evenodd" fill="#98A3AE" d="M341.974,510.957c1.469,0.433,2.9,1.019,3.902,2.056
			c-2.953,3.212-7.34,5.249-8.756,9.688c-0.137,1.053-1.07,1.329-0.933,2.607c-3.073,0.189-3.592,2.348-5.818,3.144
			C332.112,521.404,343.044,516.587,341.974,510.957z"/>
		<path fill-rule="evenodd" clip-rule="evenodd" fill="#808E9C" d="M345.876,513.013c0.433-0.068,0.864-0.068,1.228-0.104
			c-1.228,4.923-7.237,6.062-9.983,9.793C338.536,518.262,342.923,516.225,345.876,513.013z"/>
		<path fill-rule="evenodd" clip-rule="evenodd" fill="#6B7A88" d="M347.104,512.908c1.225-0.138,1.588,0.829,2.605,0.933
			c0,0.433,0.07,0.795,0.139,1.243c-4.454,3.541-8.669,7.15-13.66,10.225c-0.138-1.278,0.796-1.555,0.933-2.607
			C339.866,518.97,345.876,517.831,347.104,512.908z"/>
		<path fill-rule="evenodd" clip-rule="evenodd" fill="#B2BAC3" d="M318.192,529.832c0.415,1.78,3.058,0.796,5.009,0.639
			c0,0.779-0.034,1.451-1.105,1.383c-3.558,3.437-8.324,5.957-12.554,8.86c0.638-5.077,4.557-7.479,7.407-10.743
			C317.382,529.867,317.777,529.832,318.192,529.832z"/>
		<path fill-rule="evenodd" clip-rule="evenodd" fill="#7CACC4" d="M524.255,221.983c2.418-0.259,4.888-0.544,7.305-0.82
			c-23.607,31.646-56.091,56.118-77.522,89.501c3.574,4.593,2.504,13.557-2.021,15.179c-5.941-7.84-19.601,3.264-20.291,5.977
			c-0.036,1.847-2.815,1.45-4.749,1.777c-0.241-2.038-0.45-4.092-0.675-6.165c-0.552-2.263,1.071-2.901,0.655-5.008
			c0.088-2.936,0.641-5.474,2.989-6.597c2.572-1.263,2.572-4.629,4.162-6.684c1.157-2.47,8.53-5.682,6.614-6.942
			c0.086-1.452,1.779-1.521,3.506-1.641c8.428-8.454,16.734-17.055,24.194-26.354c1.123-3.186,3.661-5.241,6.614-6.942
			c3.212-3.402,8.583-5.026,10.017-9.827c8.186-5.708,13.868-13.418,21.226-19.782c0.396-0.043,0.792-0.061,1.242-0.121
			c1.865-4.429,8.601-4.956,9.965-9.826C518.003,224.392,522.942,224.643,524.255,221.983z"/>
	</g>
</g>
</svg>
